<mxfile host="app.diagrams.net" agent="Mozilla/5.0 (Windows NT 10.0; Win64; x64) AppleWebKit/537.36 (KHTML, like Gecko) Chrome/140.0.0.0 Safari/537.36 Edg/140.0.0.0" version="28.2.4">
  <diagram name="Página-1" id="OVfVDNpNaa0_j30Dnav5">
    <mxGraphModel dx="1418" dy="786" grid="1" gridSize="10" guides="1" tooltips="1" connect="1" arrows="1" fold="1" page="1" pageScale="1" pageWidth="827" pageHeight="1169" math="0" shadow="0">
      <root>
        <mxCell id="0" />
        <mxCell id="1" parent="0" />
        <mxCell id="l_7ewPaYmLm3OtJn7qy9-38" style="edgeStyle=orthogonalEdgeStyle;rounded=0;orthogonalLoop=1;jettySize=auto;html=1;" edge="1" parent="1" source="l_7ewPaYmLm3OtJn7qy9-30" target="l_7ewPaYmLm3OtJn7qy9-31">
          <mxGeometry relative="1" as="geometry" />
        </mxCell>
        <mxCell id="l_7ewPaYmLm3OtJn7qy9-30" value="inicio" style="ellipse;whiteSpace=wrap;html=1;" vertex="1" parent="1">
          <mxGeometry x="320" y="50" width="120" height="80" as="geometry" />
        </mxCell>
        <mxCell id="l_7ewPaYmLm3OtJn7qy9-39" style="edgeStyle=orthogonalEdgeStyle;rounded=0;orthogonalLoop=1;jettySize=auto;html=1;" edge="1" parent="1" source="l_7ewPaYmLm3OtJn7qy9-31" target="l_7ewPaYmLm3OtJn7qy9-32">
          <mxGeometry relative="1" as="geometry" />
        </mxCell>
        <mxCell id="l_7ewPaYmLm3OtJn7qy9-31" value="soma=0" style="rounded=0;whiteSpace=wrap;html=1;" vertex="1" parent="1">
          <mxGeometry x="320" y="240" width="120" height="60" as="geometry" />
        </mxCell>
        <mxCell id="l_7ewPaYmLm3OtJn7qy9-40" style="edgeStyle=orthogonalEdgeStyle;rounded=0;orthogonalLoop=1;jettySize=auto;html=1;entryX=0.5;entryY=0;entryDx=0;entryDy=0;" edge="1" parent="1" source="l_7ewPaYmLm3OtJn7qy9-32" target="l_7ewPaYmLm3OtJn7qy9-33">
          <mxGeometry relative="1" as="geometry" />
        </mxCell>
        <mxCell id="l_7ewPaYmLm3OtJn7qy9-32" value="ler quantos" style="shape=parallelogram;perimeter=parallelogramPerimeter;whiteSpace=wrap;html=1;fixedSize=1;" vertex="1" parent="1">
          <mxGeometry x="320" y="390" width="120" height="60" as="geometry" />
        </mxCell>
        <mxCell id="l_7ewPaYmLm3OtJn7qy9-33" value="ler num" style="shape=parallelogram;perimeter=parallelogramPerimeter;whiteSpace=wrap;html=1;fixedSize=1;" vertex="1" parent="1">
          <mxGeometry x="320" y="560" width="120" height="60" as="geometry" />
        </mxCell>
        <mxCell id="l_7ewPaYmLm3OtJn7qy9-43" style="edgeStyle=orthogonalEdgeStyle;rounded=0;orthogonalLoop=1;jettySize=auto;html=1;entryX=0.5;entryY=0;entryDx=0;entryDy=0;" edge="1" parent="1" source="l_7ewPaYmLm3OtJn7qy9-34" target="l_7ewPaYmLm3OtJn7qy9-36">
          <mxGeometry relative="1" as="geometry" />
        </mxCell>
        <mxCell id="l_7ewPaYmLm3OtJn7qy9-34" value="quantos=0" style="rhombus;whiteSpace=wrap;html=1;" vertex="1" parent="1">
          <mxGeometry x="334" y="840" width="80" height="80" as="geometry" />
        </mxCell>
        <mxCell id="l_7ewPaYmLm3OtJn7qy9-42" style="edgeStyle=orthogonalEdgeStyle;rounded=0;orthogonalLoop=1;jettySize=auto;html=1;entryX=0.5;entryY=0;entryDx=0;entryDy=0;" edge="1" parent="1" source="l_7ewPaYmLm3OtJn7qy9-35" target="l_7ewPaYmLm3OtJn7qy9-34">
          <mxGeometry relative="1" as="geometry" />
        </mxCell>
        <mxCell id="l_7ewPaYmLm3OtJn7qy9-35" value="quantos-1=quantos&lt;div&gt;soma+num=soma&lt;/div&gt;" style="rounded=0;whiteSpace=wrap;html=1;" vertex="1" parent="1">
          <mxGeometry x="314" y="680" width="120" height="60" as="geometry" />
        </mxCell>
        <mxCell id="l_7ewPaYmLm3OtJn7qy9-44" style="edgeStyle=orthogonalEdgeStyle;rounded=0;orthogonalLoop=1;jettySize=auto;html=1;entryX=0.5;entryY=0;entryDx=0;entryDy=0;" edge="1" parent="1" source="l_7ewPaYmLm3OtJn7qy9-36" target="l_7ewPaYmLm3OtJn7qy9-37">
          <mxGeometry relative="1" as="geometry" />
        </mxCell>
        <mxCell id="l_7ewPaYmLm3OtJn7qy9-36" value="Escrrever&quot;A soma dos numeros que escreveste é&quot;.Soma" style="shape=parallelogram;perimeter=parallelogramPerimeter;whiteSpace=wrap;html=1;fixedSize=1;" vertex="1" parent="1">
          <mxGeometry x="314" y="1020" width="120" height="60" as="geometry" />
        </mxCell>
        <mxCell id="l_7ewPaYmLm3OtJn7qy9-37" value="fim" style="ellipse;whiteSpace=wrap;html=1;" vertex="1" parent="1">
          <mxGeometry x="320" y="1170" width="120" height="80" as="geometry" />
        </mxCell>
        <mxCell id="l_7ewPaYmLm3OtJn7qy9-41" style="edgeStyle=orthogonalEdgeStyle;rounded=0;orthogonalLoop=1;jettySize=auto;html=1;entryX=0.575;entryY=0.017;entryDx=0;entryDy=0;entryPerimeter=0;" edge="1" parent="1" source="l_7ewPaYmLm3OtJn7qy9-33" target="l_7ewPaYmLm3OtJn7qy9-35">
          <mxGeometry relative="1" as="geometry" />
        </mxCell>
      </root>
    </mxGraphModel>
  </diagram>
</mxfile>
